<?xml version="1.0" encoding="iso-8859-1"?>
<!-- Generator: Adobe Illustrator 18.0.0, SVG Export Plug-In . SVG Version: 6.00 Build 0)  -->
<!DOCTYPE svg PUBLIC "-//W3C//DTD SVG 1.1//EN" "http://www.w3.org/Graphics/SVG/1.1/DTD/svg11.dtd">
<svg version="1.1" id="Capa_1" xmlns="http://www.w3.org/2000/svg" xmlns:xlink="http://www.w3.org/1999/xlink" x="0px" y="0px"
	 viewBox="0 0 56.119 56.119" style="enable-background:new 0 0 56.119 56.119;" xml:space="preserve">
<g>
	<g>
		<path style="fill:#26B99A;" d="M50,12.074h-6v-2.022l-15,7.308v4.714h-6v-1.791L7,28.077v2.996H3
			c0.725,5.466,3.355,11.185,7.555,15.385c10.154,10.154,26.616,10.154,36.77,0C56.583,37.2,57.628,22.257,50,12.074z"/>
		<path style="fill:#26B99A;" d="M28.939,55.074c-7.212,0-13.992-2.81-19.092-7.909c-4.191-4.19-7.049-10.008-7.839-15.96
			c-0.038-0.286,0.049-0.574,0.239-0.791C2.437,30.198,2.712,30.074,3,30.074h3v-1.996c0-0.383,0.218-0.731,0.562-0.899l16-7.795
			c0.311-0.149,0.677-0.131,0.968,0.052c0.292,0.183,0.47,0.503,0.47,0.848v0.791h4V17.36c0-0.383,0.218-0.731,0.562-0.899l15-7.308
			c0.31-0.15,0.676-0.132,0.968,0.052C44.822,9.387,45,9.707,45,10.052v1.021h5c0.315,0,0.611,0.148,0.801,0.4
			c8.037,10.731,6.847,26.075-2.77,35.691C42.932,52.265,36.151,55.074,28.939,55.074z M4.168,32.074
			c0.925,5.125,3.472,10.058,7.093,13.678c4.722,4.722,11,7.323,17.678,7.323s12.956-2.602,17.678-7.323
			c8.652-8.652,9.874-22.908,2.876-32.678H44c-0.552,0-1-0.447-1-1v-0.422l-13,6.333v4.089c0,0.553-0.448,1-1,1h-6
			c-0.552,0-1-0.447-1-1v-0.191l-14,6.82v2.371c0,0.553-0.448,1-1,1H4.168z"/>
	</g>
	<path style="fill:#7383BF;" d="M7,29.513c-0.181,0-0.362-0.049-0.521-0.146C6.182,29.185,6,28.862,6,28.513v-2.439H3
		c-0.282,0-0.551-0.119-0.741-0.328c-0.19-0.209-0.282-0.489-0.254-0.77c0.59-5.999,3.229-11.381,7.843-15.994l0,0
		C19.207-0.377,33.814-1.603,44.58,6.069C44.844,6.256,45,6.56,45,6.883v2.63c0,0.375-0.209,0.719-0.543,0.89l-15,7.703
		c-0.31,0.159-0.68,0.146-0.978-0.036C28.182,17.888,28,17.565,28,17.216v-0.143h-4v3.224c0,0.375-0.209,0.719-0.543,0.89l-16,8.216
		C7.313,29.476,7.156,29.513,7,29.513z M4.129,24.074H7c0.552,0,1,0.447,1,1v1.802l14-7.188v-3.613c0-0.553,0.448-1,1-1h6
		c0.394,0,0.734,0.228,0.897,0.558L43,8.903V7.405c-9.924-6.774-23.192-5.553-31.738,2.991C7.269,14.389,4.873,18.985,4.129,24.074z
		"/>
	<g>
		<rect x="1" y="25.074" style="fill:#556080;" width="6" height="6"/>
		<path style="fill:#556080;" d="M8,32.074H0v-8h8V32.074z M2,30.074h4v-4H2V30.074z"/>
	</g>
	<g>
		<rect x="23" y="16.074" style="fill:#556080;" width="6" height="6"/>
		<path style="fill:#556080;" d="M30,23.074h-8v-8h8V23.074z M24,21.074h4v-4h-4V21.074z"/>
	</g>
	<g>
		<rect x="44" y="6.074" style="fill:#556080;" width="6" height="6"/>
		<path style="fill:#556080;" d="M51,13.074h-8v-8h8V13.074z M45,11.074h4v-4h-4V11.074z"/>
	</g>
</g>
<g>
</g>
<g>
</g>
<g>
</g>
<g>
</g>
<g>
</g>
<g>
</g>
<g>
</g>
<g>
</g>
<g>
</g>
<g>
</g>
<g>
</g>
<g>
</g>
<g>
</g>
<g>
</g>
<g>
</g>
</svg>
