<?xml version="1.0" encoding="iso-8859-1"?>
<!-- Generator: Adobe Illustrator 19.0.0, SVG Export Plug-In . SVG Version: 6.00 Build 0)  -->
<svg version="1.1" id="Layer_1" xmlns="http://www.w3.org/2000/svg" xmlns:xlink="http://www.w3.org/1999/xlink" x="0px" y="0px"
	 viewBox="0 0 488.369 488.369" style="enable-background:new 0 0 488.369 488.369;" xml:space="preserve">
<path style="fill:#C0F0F2;" d="M236.599,267.044c-11.296,0-21.709,3.718-30.145,9.941c-9.287-10.004-22.528-16.282-37.266-16.282
	c-8.909,0-17.282,2.308-24.56,6.317c-8.31-9.578-19.614-16.431-32.516-19.046c-6.9-50.215-49.853-88.923-101.927-88.923
	c-3.434,0-6.845,0.181-10.177,0.504v205.021c3.332,0.323,6.743,0.504,10.177,0.504c19.377,0,37.447-5.451,52.933-14.769
	c10.122,8.428,23.15,13.485,37.344,13.485c13.808,0,26.474-4.805,36.486-12.8c8.767,7.2,20.007,11.54,32.248,11.54
	c11.319,0,21.709-3.734,30.145-9.941c9.303,10.004,22.528,16.289,37.266,16.289c28.121,0,50.916-22.812,50.916-50.932
	C287.516,289.84,264.72,267.044,236.599,267.044z"/>
<path style="fill:#9CD8E2;" d="M236.599,284.862c-11.296,0-21.709,3.718-30.145,9.941c-9.287-10.004-22.528-16.305-37.266-16.305
	c-8.909,0-17.282,2.3-24.56,6.325c-8.31-9.563-19.614-16.447-32.516-19.046c-6.9-50.2-49.853-88.915-101.927-88.915
	c-3.434,0-6.845,0.189-10.177,0.512v204.989c3.332,0.354,6.743,0.512,10.177,0.512c19.377,0,37.447-5.443,52.933-14.754
	c10.122,8.405,23.15,13.493,37.344,13.493c13.808,0,26.474-4.805,36.486-12.8c8.767,7.199,20.007,11.524,32.248,11.524
	c11.319,0,21.709-3.734,30.145-9.964c9.303,10.012,22.528,16.305,37.266,16.305c28.121,0,50.916-22.796,50.916-50.916
	C287.516,307.642,264.72,284.862,236.599,284.862z"/>
<path style="fill:#C0F0F2;" d="M251.77,267.044c11.296,0,21.709,3.718,30.145,9.941c9.287-10.004,22.528-16.282,37.266-16.282
	c8.909,0,17.282,2.308,24.552,6.317c8.302-9.578,19.629-16.431,32.524-19.046c6.892-50.215,49.853-88.923,101.935-88.923
	c3.426,0,6.829,0.181,10.169,0.504v205.021c-3.34,0.323-6.743,0.504-10.169,0.504c-19.385,0-37.455-5.451-52.949-14.769
	c-10.114,8.428-23.15,13.485-37.337,13.485c-13.816,0-26.466-4.805-36.486-12.8c-8.767,7.2-20.007,11.54-32.248,11.54
	c-11.319,0-21.709-3.734-30.145-9.941c-9.303,10.004-22.528,16.289-37.266,16.289c-28.121,0-50.916-22.812-50.916-50.932
	C200.854,289.84,223.649,267.044,251.77,267.044z"/>
<path style="fill:#9CD8E2;" d="M251.77,284.862c11.296,0,21.709,3.718,30.145,9.941c9.287-10.004,22.528-16.305,37.266-16.305
	c8.909,0,17.282,2.3,24.552,6.325c8.302-9.563,19.629-16.447,32.524-19.046c6.892-50.2,49.853-88.915,101.935-88.915
	c3.426,0,6.829,0.189,10.169,0.512v204.989c-3.34,0.354-6.743,0.512-10.169,0.512c-19.385,0-37.455-5.443-52.949-14.754
	c-10.114,8.405-23.15,13.493-37.337,13.493c-13.816,0-26.466-4.805-36.486-12.8c-8.767,7.199-20.007,11.524-32.248,11.524
	c-11.319,0-21.709-3.734-30.145-9.964c-9.303,10.012-22.528,16.305-37.266,16.305c-28.121,0-50.916-22.796-50.916-50.916
	C200.854,307.642,223.649,284.862,251.77,284.862z"/>
<path style="fill:#148DE0;" d="M486.439,301.656v-86.812c0-19.543-15.841-35.36-35.367-35.36h-15.714
	c-19.519,0-35.352,15.817-35.352,35.36v86.812L486.439,301.656L486.439,301.656z"/>
<g>
	<path style="fill:#0C76BF;" d="M486.439,301.656v-86.812c0-19.543-15.841-35.36-35.367-35.36h-15.714
		c-19.519,0-35.352,15.817-35.352,35.36"/>
	<path style="fill:#0C76BF;" d="M448.039,274.732c0,1.174-0.961,2.135-2.143,2.135h-8.751c-1.174,0-2.119-0.961-2.119-2.135l0,0
		c0-1.166,0.937-2.135,2.119-2.135h8.751C447.078,272.598,448.039,273.559,448.039,274.732L448.039,274.732z"/>
	<path style="fill:#0C76BF;" d="M448.039,293.023c0,1.166-0.961,2.119-2.143,2.119h-8.751c-1.174,0-2.119-0.945-2.119-2.119l0,0
		c0-1.189,0.937-2.135,2.119-2.135h8.751C447.078,290.888,448.039,291.833,448.039,293.023L448.039,293.023z"/>
	<path style="fill:#0C76BF;" d="M455.546,282.239c0,1.189-0.961,2.143-2.143,2.143h-8.743c-1.174,0-2.135-0.953-2.135-2.143l0,0
		c0-1.15,0.953-2.119,2.135-2.119h8.743C454.585,280.12,455.546,281.089,455.546,282.239L455.546,282.239z"/>
</g>
<g>
	<path style="fill:#148DE0;" d="M459.626,246.635c0-1.189,0.961-2.143,2.143-2.143h8.736c1.189,0,2.143,0.953,2.143,2.143l0,0
		c0,1.15-0.953,2.103-2.143,2.103h-8.736C460.587,248.731,459.626,247.785,459.626,246.635L459.626,246.635z"/>
	<path style="fill:#148DE0;" d="M459.626,228.345c0-1.174,0.961-2.135,2.143-2.135h8.736c1.189,0,2.143,0.961,2.143,2.135l0,0
		c0,1.166-0.953,2.135-2.143,2.135h-8.736C460.587,230.48,459.626,229.519,459.626,228.345L459.626,228.345z"/>
	<path style="fill:#148DE0;" d="M452.128,239.105c0-1.182,0.945-2.135,2.135-2.135h8.736c1.197,0,2.143,0.945,2.143,2.135l0,0
		c0,1.166-0.945,2.135-2.143,2.135h-8.736C453.081,241.24,452.128,240.279,452.128,239.105L452.128,239.105z"/>
</g>
<path style="fill:#FF7C24;" d="M451.072,179.485h-15.714c-19.519,0-35.352,15.817-35.352,35.36l0.165,0.15h86.268v-0.15
	C486.439,195.301,470.599,179.485,451.072,179.485z"/>
<g>
	<path style="fill:#FFA522;" d="M451.072,179.485h-15.714c-19.519,0-35.352,15.817-35.352,35.36l0.165,0.15"/>
	<path style="fill:#FFA522;" d="M399.998,214.844v2.127h86.441v-2.127c0-0.488-0.063-1-0.095-1.497h-86.268
		C400.061,213.844,399.998,214.356,399.998,214.844z"/>
</g>
<polygon style="fill:#D14A2F;" points="402.621,312.959 402.621,264.595 366.151,228.148 314.589,228.148 278.142,264.595 
	278.142,312.959 "/>
<polyline style="fill:#BC3C1E;" points="402.621,312.959 402.621,264.595 366.151,228.148 314.589,228.148 278.142,264.595 "/>
<polygon style="fill:#931C0C;" points="402.038,264.035 366.151,228.148 314.589,228.148 278.701,264.035 "/>
<polyline style="fill:#AA2D15;" points="314.589,228.148 278.701,264.035 402.038,264.035 "/>
<polygon style="fill:#7F1105;" points="314.589,228.148 278.142,264.595 278.142,270.061 278.701,270.061 314.589,234.166 
	366.151,234.166 402.038,270.061 402.621,270.061 402.621,264.595 366.151,228.148 "/>
<path style="fill:#470E0E;" d="M413.964,260.688c-0.607-1.709-1.528-3.308-2.828-4.6l-36.462-36.47
	c-2.253-2.253-5.317-3.513-8.515-3.513h-51.57c-3.182,0-6.254,1.26-8.507,3.513l-36.47,36.47c-1.308,1.292-2.237,2.891-2.812,4.6
	c1.654,2.024,4.143,3.348,6.963,3.348h4.947l35.887-35.887h51.57l35.887,35.887h4.955
	C409.821,264.035,412.302,262.712,413.964,260.688z"/>
<path style="fill:#260707;" d="M366.151,224.572h-51.57c-3.182,0-6.254,1.245-8.507,3.529l-35.367,35.336
	c0.961,0.347,1.977,0.591,3.048,0.591h4.947l35.887-35.887h51.57l35.887,35.887h4.955c1.071,0,2.072-0.244,3.033-0.591
	l-35.352-35.336C372.413,225.817,369.357,224.572,366.151,224.572z"/>
<g>
	<path style="fill:#AA2D15;" d="M358.353,312.959h-35.95c-1.189,0-2.143-0.985-2.143-2.174V274.85c0-1.197,0.953-2.158,2.143-2.158
		h35.95c1.189,0,2.15,0.961,2.15,2.158v35.935C360.511,311.974,359.55,312.959,358.353,312.959z M324.553,308.642h31.634v-31.626
		h-31.634V308.642z"/>
	<path style="fill:#AA2D15;" d="M324.427,310.911c-0.528,0-1.103-0.189-1.52-0.622c-0.819-0.835-0.819-2.221,0-3.048l31.87-31.862
		c0.843-0.835,2.206-0.866,3.056,0c0.835,0.827,0.835,2.206,0,3.04l-31.854,31.87C325.53,310.706,324.986,310.911,324.427,310.911z"
		/>
	<path style="fill:#AA2D15;" d="M356.305,310.911c-0.551,0-1.118-0.197-1.536-0.622l-31.87-31.87c-0.819-0.827-0.819-2.206,0-3.04
		c0.851-0.866,2.221-0.866,3.072,0l31.854,31.862c0.835,0.819,0.835,2.206,0,3.048C357.415,310.714,356.872,310.911,356.305,310.911
		z"/>
	<path style="fill:#AA2D15;" d="M405.165,313.132c0,1.268-1,2.284-2.261,2.284H278.961c-1.237,0-2.253-1.016-2.253-2.284l0,0
		c0-1.229,1.016-2.237,2.253-2.237h123.936C404.165,310.895,405.165,311.904,405.165,313.132L405.165,313.132z"/>
</g>
<g>
	<g>
		<path id="SVGCleanerId_0" style="fill:#7DA81D;" d="M488.369,291.565C256.181,293.653,61.487,364.876,0,461.746h488.369V291.565z"
			/>
	</g>
	<g>
		<path id="SVGCleanerId_0_1_" style="fill:#7DA81D;" d="M488.369,291.565C256.181,293.653,61.487,364.876,0,461.746h488.369
			V291.565z"/>
	</g>
</g>
<g>
	<path id="SVGCleanerId_0_2_" style="fill:#2D7216;" d="M488.369,291.565C256.181,293.653,61.487,364.876,0,461.746h488.369V291.565
		z"/>
</g>
<g>
	<path style="fill:#42892E;" d="M91.152,461.746c79.328-65.694,225.571-112.349,397.217-121.021v-24.828
		c-202.295,5.979-372.823,64.52-446.165,145.857h48.947V461.746z"/>
	<path style="fill:#42892E;" d="M488.369,391.862v-25.773C348.373,376.187,227.021,411.578,148,461.754h67.017
		C286.783,426.883,381.487,401.913,488.369,391.862z"/>
	<path style="fill:#42892E;" d="M488.369,445.142v-26.908c-71.357,8.334-136.799,23.347-192.819,43.512h104.716
		C428.237,455.051,457.657,449.45,488.369,445.142z"/>
</g>
<path style="fill:#7DA81D;" d="M0,291.565c232.188,2.087,426.874,73.311,488.369,170.181H0V291.565z"/>
<g>
	<path style="fill:#96C610;" d="M397.21,461.746C317.881,396.053,171.638,349.398,0,340.725v-24.828
		c202.287,5.979,372.815,64.52,446.165,145.857H397.21V461.746z"/>
	<path style="fill:#96C610;" d="M0,391.862v-25.773c139.997,10.098,261.333,45.489,340.378,95.665h-67.025
		C201.586,426.883,106.874,401.913,0,391.862z"/>
	<path style="fill:#96C610;" d="M0,445.142v-26.908c71.349,8.334,136.791,23.347,192.819,43.512H88.096
		C60.125,455.051,30.712,449.45,0,445.142z"/>
</g>
<path style="fill:#AEB9BA;" d="M215.103,320.253V174.837c0-32.681-26.498-59.195-59.219-59.195H129.56
	c-32.697,0-59.219,26.506-59.219,59.195v145.416H215.103z"/>
<path style="fill:#92A4A5;" d="M215.103,320.253V174.837c0-32.681-26.498-59.195-59.219-59.195H129.56
	c-32.697,0-59.219,26.506-59.219,59.195"/>
<g>
	<path style="fill:#C7D2D3;" d="M104.487,255.883c0,1.961-1.591,3.576-3.568,3.576H86.252c-1.969,0-3.552-1.615-3.552-3.576l0,0
		c0-1.961,1.583-3.56,3.552-3.56h14.667C102.888,252.322,104.487,253.921,104.487,255.883L104.487,255.883z"/>
	<path style="fill:#C7D2D3;" d="M104.487,286.5c0,1.969-1.591,3.568-3.568,3.568H86.252c-1.969,0-3.552-1.599-3.552-3.568l0,0
		c0-1.977,1.583-3.56,3.552-3.56h14.667C102.888,282.94,104.487,284.523,104.487,286.5L104.487,286.5z"/>
	<path style="fill:#C7D2D3;" d="M117.075,268.462c0,1.977-1.599,3.576-3.576,3.576H98.84c-1.977,0-3.592-1.599-3.592-3.576l0,0
		c0-1.961,1.615-3.545,3.592-3.545h14.659C115.476,264.918,117.075,266.501,117.075,268.462L117.075,268.462z"/>
</g>
<g>
	<path style="fill:#148DE0;" d="M199.255,232.425c0,1.961-1.591,3.545-3.56,3.545h-14.69c-1.938,0-3.545-1.583-3.545-3.545l0,0
		c0-1.977,1.607-3.576,3.545-3.576h14.69C197.664,228.849,199.255,230.448,199.255,232.425L199.255,232.425z"/>
	<path style="fill:#148DE0;" d="M206.171,249.384c0,1.977-1.591,3.576-3.552,3.576h-14.69c-1.953,0-3.56-1.599-3.56-3.576l0,0
		c0-1.961,1.607-3.545,3.56-3.545h14.69C204.579,245.84,206.171,247.423,206.171,249.384L206.171,249.384z"/>
</g>
<circle style="fill:#465453;" cx="142.73" cy="165.944" r="22.646"/>
<g>
	<path style="fill:#2B3534;" d="M142.738,154.625c-10.547,0-19.33,7.231-21.835,16.975c2.505,9.752,11.296,16.991,21.835,16.991
		c10.539,0,19.298-7.239,21.827-16.991C162.036,161.856,153.277,154.625,142.738,154.625z"/>
	<path style="fill:#2B3534;" d="M148.102,160.517c-1.552-1.552-1.56-4.088-0.008-5.656l47.813-47.797
		c1.56-1.536,4.088-1.536,5.64,0.008c1.568,1.568,1.568,4.104,0,5.671l-47.789,47.774
		C152.174,162.084,149.669,162.084,148.102,160.517z"/>
</g>
<path style="fill:#FFA522;" d="M218.498,156.523c-4.671,4.679-12.256,4.679-16.943,0l-23.127-23.127
	c-4.671-4.679-0.638-8.224,4.041-12.918l60.046-60.046c4.695-4.679,12.288-4.663,16.959,0l19.078,19.078
	c4.679,4.679,4.679,12.288,0,16.959L218.498,156.523z"/>
<path style="fill:#FF7C24;" d="M210.739,148.749l60.03-60.054c4.687-4.671,4.687-12.256,0-16.928l-11.296-11.327
	c-4.679-4.663-12.272-4.679-16.959,0l-60.046,60.046c-4.679,4.695-8.704,8.239-4.041,12.918l15.368,15.344
	C198.459,153.42,206.045,153.42,210.739,148.749z"/>
<g>
	<path style="fill:#FFA522;" d="M266.067,100.006c-1.048,1.04-2.749,1.04-3.773,0l-7.507-7.538c-1.063-1.032-1.063-2.71,0-3.765l0,0
		c1.032-1.048,2.718-1.048,3.757-0.016l7.53,7.538C267.099,97.289,267.099,98.951,266.067,100.006L266.067,100.006z"/>
	<path style="fill:#FFA522;" d="M257.355,108.718c-1.032,1.056-2.725,1.056-3.773,0l-7.53-7.522
		c-1.024-1.048-1.024-2.725,0.008-3.773l0,0c1.048-1.04,2.733-1.056,3.765,0l7.53,7.53
		C258.387,105.993,258.402,107.686,257.355,108.718L257.355,108.718z"/>
	<path style="fill:#FFA522;" d="M248.651,117.438c-1.048,1.04-2.749,1.04-3.773,0l-7.554-7.53c-1.024-1.056-1.016-2.749,0.008-3.773
		l0,0c1.04-1.04,2.741-1.04,3.773-0.016l7.538,7.546C249.683,114.697,249.683,116.39,248.651,117.438L248.651,117.438z"/>
</g>
<path style="fill:#2B3534;" d="M137.358,171.371c1.56,1.552,1.56,4.096,0,5.663l-47.813,47.789c-1.552,1.552-4.08,1.552-5.648,0
	c-1.568-1.568-1.568-4.096,0-5.664l47.813-47.789C133.285,169.82,135.79,169.82,137.358,171.371z"/>
<path style="fill:#FFA522;" d="M66.946,175.381c4.695-4.695,12.28-4.679,16.951,0l23.127,23.127
	c4.679,4.679,0.63,8.224-4.049,12.918l-60.038,60.03c-4.687,4.695-12.28,4.679-16.943,0L6.916,252.37
	c-4.695-4.679-4.695-12.256,0-16.959L66.946,175.381z"/>
<path style="fill:#FF7C24;" d="M74.72,183.155l-60.046,60.03c-4.695,4.695-4.695,12.28-0.016,16.959l11.335,11.303
	c4.671,4.679,12.264,4.695,16.943,0l60.038-60.03c4.679-4.695,8.72-8.239,4.049-12.918l-15.352-15.36
	C87.001,178.461,79.407,178.461,74.72,183.155z"/>
<g>
	<path style="fill:#FFA522;" d="M19.385,231.89c1.04-1.056,2.741-1.04,3.773,0l7.538,7.515c1.032,1.055,1.032,2.733,0,3.773l0,0
		c-1.048,1.04-2.749,1.04-3.773,0l-7.538-7.53C18.361,234.615,18.345,232.922,19.385,231.89L19.385,231.89z"/>
	<path style="fill:#FFA522;" d="M28.089,223.17c1.048-1.04,2.733-1.04,3.781,0l7.522,7.53c1.032,1.04,1.032,2.749-0.008,3.765l0,0
		c-1.016,1.048-2.725,1.048-3.757,0.016l-7.53-7.538C27.065,225.895,27.057,224.218,28.089,223.17L28.089,223.17z"/>
	<path style="fill:#FFA522;" d="M36.809,214.458c1.048-1.04,2.733-1.04,3.773,0l7.53,7.546c1.04,1.032,1.04,2.718-0.008,3.773l0,0
		c-1.04,1.024-2.725,1.024-3.765,0l-7.522-7.538C35.769,217.199,35.769,215.49,36.809,214.458L36.809,214.458z"/>
</g>
<path style="fill:#2B3534;" d="M148.149,171.324c1.568-1.568,4.104-1.568,5.664,0l47.789,47.789c1.567,1.552,1.567,4.104,0,5.663
	c-1.568,1.552-4.104,1.536-5.648,0l-47.805-47.805C146.597,175.412,146.59,172.876,148.149,171.324z"/>
<path style="fill:#FFA522;" d="M152.159,241.72c-4.687-4.671-4.679-12.272,0-16.943l23.111-23.127
	c4.695-4.695,8.231-0.638,12.902,4.049l60.069,60.038c4.671,4.687,4.671,12.288,0,16.959l-19.078,19.078
	c-4.687,4.671-12.288,4.671-16.967-0.016L152.159,241.72z"/>
<path style="fill:#FF7C24;" d="M159.941,233.946l60.038,60.046c4.687,4.695,12.256,4.695,16.943,0.016l11.319-11.311
	c4.671-4.679,4.671-12.28,0-16.959l-60.069-60.038c-4.671-4.687-8.208-8.736-12.902-4.049l-15.328,15.344
	C155.238,221.681,155.238,229.267,159.941,233.946z"/>
<g>
	<path style="fill:#FFA522;" d="M208.652,289.297c-1.032-1.04-1.032-2.733,0-3.773l7.554-7.538c1.032-1.04,2.702-1.04,3.765,0.016
		l0,0c1.048,1.04,1.048,2.71,0,3.765l-7.53,7.522C211.409,290.321,209.699,290.321,208.652,289.297L208.652,289.297z"/>
	<path style="fill:#FFA522;" d="M199.964,280.585c-1.048-1.04-1.048-2.749,0-3.773l7.522-7.538c1.048-1.04,2.718-1.024,3.773,0l0,0
		c1.032,1.048,1.032,2.741,0,3.773l-7.538,7.538C202.681,281.625,201.003,281.625,199.964,280.585L199.964,280.585z"/>
	<path style="fill:#FFA522;" d="M191.252,271.873c-1.063-1.048-1.063-2.741,0-3.773l7.522-7.515c1.032-1.056,2.725-1.056,3.757,0
		l0,0c1.056,1.016,1.056,2.725,0,3.765l-7.515,7.53C193.953,272.905,192.291,272.905,191.252,271.873L191.252,271.873z"/>
</g>
<path style="fill:#2B3534;" d="M137.303,160.564c-1.568,1.568-4.088,1.568-5.648,0L83.85,112.791c-1.552-1.568-1.552-4.104,0-5.671
	c1.583-1.552,4.104-1.552,5.656,0l47.797,47.805C138.87,156.476,138.87,159.012,137.303,160.564z"/>
<path style="fill:#FFA522;" d="M133.301,90.168c4.687,4.679,4.671,12.264,0,16.943l-23.127,23.135
	c-4.679,4.679-8.224,0.638-12.918-4.072l-60.03-60.03c-4.671-4.679-4.671-12.272,0-16.943l19.078-19.078
	c4.679-4.679,12.272-4.679,16.951,0.016L133.301,90.168z"/>
<path style="fill:#FF7C24;" d="M125.527,97.943L65.489,37.897c-4.687-4.687-12.296-4.687-16.967,0L37.226,49.2
	c-4.671,4.679-4.671,12.272,0,16.943l60.038,60.03c4.695,4.71,8.239,8.743,12.918,4.072l15.352-15.36
	C130.206,110.207,130.206,102.622,125.527,97.943z"/>
<g>
	<path style="fill:#FFA522;" d="M76.792,42.607c1.048,1.04,1.048,2.725,0,3.765l-7.53,7.538c-1.048,1.048-2.725,1.048-3.773,0l0,0
		c-1.056-1.04-1.04-2.733,0-3.765l7.538-7.538C74.059,41.568,75.744,41.552,76.792,42.607L76.792,42.607z"/>
	<path style="fill:#FFA522;" d="M85.504,51.303c1.04,1.056,1.04,2.765,0,3.773l-7.53,7.538c-1.048,1.048-2.749,1.048-3.781,0l0,0
		c-1.016-1.04-1.016-2.741,0-3.765l7.546-7.554C82.763,50.287,84.464,50.287,85.504,51.303L85.504,51.303z"/>
	<path style="fill:#FFA522;" d="M94.208,60.023c1.04,1.04,1.032,2.733,0,3.765l-7.53,7.538c-1.032,1.04-2.725,1.04-3.765,0l0,0
		c-1.048-1.04-1.048-2.725,0-3.773l7.515-7.522C91.475,58.976,93.176,58.976,94.208,60.023L94.208,60.023z"/>
	<circle style="fill:#FFA522;" cx="142.738" cy="165.944" r="11.012"/>
</g>
<path style="fill:#FF7C24;" d="M150.497,158.154c4.309,4.309,4.309,11.288,0,15.581c-4.293,4.293-11.248,4.309-15.573,0"/>
<path style="fill:#7DA81D;" d="M263.491,330.312c0,6.955,9.468,12.579,2.505,12.579H19.448c-6.94,0,2.521-5.624,2.521-12.579l0,0
	c0-6.947,5.624-12.579,12.587-12.579h216.355C257.843,317.732,263.491,323.364,263.491,330.312L263.491,330.312z"/>
<path style="fill:#96C610;" d="M250.912,317.732H34.556c-6.814,0-12.32,5.411-12.548,12.146h241.443
	C263.215,323.136,257.725,317.732,250.912,317.732z"/>
<g>
</g>
<g>
</g>
<g>
</g>
<g>
</g>
<g>
</g>
<g>
</g>
<g>
</g>
<g>
</g>
<g>
</g>
<g>
</g>
<g>
</g>
<g>
</g>
<g>
</g>
<g>
</g>
<g>
</g>
</svg>
