<?xml version="1.0" encoding="iso-8859-1"?>
<!-- Generator: Adobe Illustrator 19.0.0, SVG Export Plug-In . SVG Version: 6.00 Build 0)  -->
<svg version="1.1" id="Layer_1" xmlns="http://www.w3.org/2000/svg" xmlns:xlink="http://www.w3.org/1999/xlink" x="0px" y="0px"
	 viewBox="0 0 512.001 512.001" style="enable-background:new 0 0 512.001 512.001;" xml:space="preserve">
<path style="fill:#B6E152;" d="M370.076,240.796l-11.13,19.278c-6.147,10.647-19.762,14.296-30.408,8.149l-23.306-13.456
	c-14.355,13.949-32.114,24.413-51.918,30.014v26.871c0,12.295-9.966,22.261-22.261,22.261h-22.261
	c-12.295,0-22.261-9.966-22.261-22.261v-26.871c-19.803-5.601-37.562-16.066-51.918-30.014l-23.306,13.456
	c-10.647,6.147-24.262,2.499-30.408-8.149l-11.13-19.278c-6.147-10.647-2.499-24.262,8.147-30.409l23.277-13.439
	c-2.416-9.598-3.706-19.643-3.706-29.991s1.29-20.393,3.706-29.991l-23.277-13.439c-10.647-6.147-14.295-19.762-8.147-30.409
	l11.13-19.278c6.147-10.647,19.762-14.296,30.408-8.149l23.306,13.456c14.355-13.949,32.114-24.413,51.918-30.014V22.261
	C186.531,9.966,196.497,0,208.791,0h22.261c12.295,0,22.261,9.966,22.261,22.261v26.871c19.803,5.601,37.562,16.066,51.918,30.014
	l23.306-13.456c10.647-6.147,24.262-2.499,30.408,8.149l11.13,19.278c6.147,10.647,2.499,24.262-8.147,30.409l-23.277,13.439
	c2.416,9.598,3.706,19.643,3.706,29.991s-1.29,20.393-3.706,29.991l23.277,13.439C372.576,216.534,376.223,230.148,370.076,240.796z
	"/>
<path style="fill:#92B703;" d="M297.836,166.957c0,43.03-34.883,77.913-77.913,77.913s-77.913-34.883-77.913-77.913
	s34.883-77.913,77.913-77.913S297.836,123.926,297.836,166.957z"/>
<path style="fill:#768900;" d="M261.662,155.826c0,4.611-3.736,8.348-8.348,8.348h-66.783c-4.611,0-8.348-3.736-8.348-8.348
	s3.736-8.348,8.348-8.348h66.783C257.925,147.478,261.662,151.215,261.662,155.826z M231.053,180.87h-22.261
	c-4.611,0-8.348,3.736-8.348,8.348s3.736,8.348,8.348,8.348h22.261c4.611,0,8.348-3.736,8.348-8.348S235.664,180.87,231.053,180.87z
	"/>
<path style="fill:#73A4BC;" d="M498.808,449.257l-7.686,12.99c-4.244,7.175-13.645,9.632-20.996,5.491l-16.105-9.074
	c-9.909,9.395-22.166,16.432-35.834,20.206v18.132c0,8.284-6.882,14.999-15.37,14.999h-15.37c-8.489,0-15.37-6.716-15.37-14.999
	V478.87c-13.668-3.774-25.926-10.811-35.834-20.206l-16.105,9.074c-7.352,4.142-16.752,1.684-20.996-5.491l-7.686-12.99
	c-4.244-7.174-1.725-16.347,5.626-20.49l16.077-9.058c-1.668-6.467-2.564-13.233-2.564-20.205s0.895-13.739,2.564-20.205
	l-16.077-9.058c-7.352-4.142-9.87-13.315-5.626-20.49l7.686-12.99c4.244-7.174,13.645-9.632,20.996-5.491l16.105,9.074
	c9.909-9.395,22.166-16.432,35.834-20.206v-18.131c0-8.284,6.882-14.999,15.37-14.999h15.37c8.489,0,15.37,6.716,15.37,14.999
	v18.131c13.668,3.774,25.926,10.811,35.834,20.206l16.105-9.074c7.352-4.142,16.752-1.684,20.996,5.491l7.686,12.99
	c4.244,7.175,1.725,16.348-5.626,20.49l-16.077,9.058c1.668,6.467,2.564,13.233,2.564,20.205c0,6.972-0.895,13.739-2.564,20.205
	l16.077,9.058C500.534,432.908,503.052,442.082,498.808,449.257z"/>
<path style="fill:#56889B;" d="M437.426,399.502c0,23.359-18.936,42.296-42.296,42.296s-42.296-18.936-42.296-42.296
	c0-23.359,18.936-42.296,42.296-42.296S437.426,376.144,437.426,399.502z"/>
<path style="fill:#C6C6C6;" d="M185.494,459.758l-6.399,10.815c-3.534,5.974-11.361,8.021-17.483,4.571l-13.409-7.555
	c-8.251,7.822-18.455,13.682-29.836,16.825v15.096c0,6.898-5.73,12.489-12.798,12.489H92.772c-7.068,0-12.798-5.592-12.798-12.489
	v-15.096c-11.381-3.143-21.586-9.001-29.836-16.825l-13.409,7.555c-6.121,3.449-13.949,1.402-17.483-4.571l-6.399-10.815
	c-3.534-5.974-1.437-13.611,4.685-17.061l13.387-7.542c-1.389-5.384-2.135-11.018-2.135-16.824s0.746-11.439,2.135-16.824
	l-13.387-7.542c-6.121-3.449-8.219-11.087-4.685-17.061l6.399-10.815c3.534-5.974,11.361-8.019,17.483-4.571l13.409,7.555
	c8.251-7.822,18.455-13.682,29.836-16.824v-15.096c0-6.898,5.73-12.489,12.798-12.489h12.798c7.068,0,12.798,5.592,12.798,12.489
	v15.096c11.381,3.143,21.586,9.001,29.836,16.824l13.409-7.555c6.121-3.449,13.949-1.402,17.483,4.571l6.399,10.815
	c3.534,5.974,1.437,13.611-4.685,17.061l-13.387,7.542c1.389,5.384,2.135,11.018,2.135,16.824s-0.746,11.439-2.135,16.824
	l13.387,7.542C186.931,446.147,189.029,453.786,185.494,459.758z"/>
<path style="fill:#969696;" d="M132.676,418.333c0,18.504-15,33.505-33.505,33.505s-33.505-15-33.505-33.505
	c0-18.504,15-33.505,33.505-33.505S132.676,399.829,132.676,418.333z"/>
<g>
</g>
<g>
</g>
<g>
</g>
<g>
</g>
<g>
</g>
<g>
</g>
<g>
</g>
<g>
</g>
<g>
</g>
<g>
</g>
<g>
</g>
<g>
</g>
<g>
</g>
<g>
</g>
<g>
</g>
</svg>
